<svg width="80" height="80" viewBox="0 0 80 80" fill="none" xmlns="http://www.w3.org/2000/svg">
<circle cx="40.001" cy="40" r="40" fill="#E5F1FF"/>
<path opacity="0.3" fill-rule="evenodd" clip-rule="evenodd" d="M28.975 23.592H50.917L54.575 29.992H25.317L28.975 23.592Z" fill="#377DFF"/>
<path fill-rule="evenodd" clip-rule="evenodd" d="M28.975 27.25H50.917C52.9372 27.25 54.575 28.8877 54.575 30.908V52.85C54.5763 53.8211 54.1914 54.7528 53.5052 55.4399C52.8191 56.127 51.8879 56.513 50.9169 56.513H28.975C28.0039 56.513 27.0727 56.1269 26.3866 55.4398C25.7004 54.7527 25.3156 53.821 25.317 52.85V30.908C25.317 28.8877 26.9547 27.25 28.975 27.25ZM34.462 34.566C33.4518 34.566 32.633 35.3849 32.633 36.395C32.633 37.4051 33.4518 38.224 34.462 38.224L45.435 38.224C46.4451 38.224 47.264 37.4051 47.264 36.395C47.264 35.3849 46.4451 34.566 45.435 34.566H34.462Z" fill="#377DFF"/>
</svg>
