<svg width="80" height="80" viewBox="0 0 80 80" fill="none" xmlns="http://www.w3.org/2000/svg">
<circle cx="40.001" cy="40" r="40" fill="#FFF2D8"/>
<path fill-rule="evenodd" clip-rule="evenodd" d="M31.93 47.56H25.886C22.942 47.56 20.555 44.285 20.555 41.34C20.555 38.395 22.942 35.12 25.886 35.12H27.663V31.566H54.32V37.786C54.32 43.0862 51.1804 47.8821 46.3235 50.002C41.4666 52.1219 35.8152 51.1629 31.9294 47.5595L31.93 47.56ZM29.201 44.006C28.3283 42.3552 27.8144 40.5385 27.693 38.675L25.886 38.675C24.905 38.675 24.109 40.359 24.109 41.341C24.109 42.323 24.909 44.007 25.886 44.007L29.201 44.006Z" fill="#FFBE3D"/>
<path opacity="0.3" fill-rule="evenodd" clip-rule="evenodd" d="M28.001 56.5C28.001 56.0858 28.1474 55.7322 28.4403 55.4393C28.7332 55.1464 29.0868 55 29.501 55H52.501C52.9152 55 53.2687 55.1464 53.5616 55.4393C53.8545 55.7322 54.001 56.0858 54.001 56.5C54.001 56.9142 53.8545 57.2678 53.5616 57.5607C53.2687 57.8536 52.9152 58 52.501 58H29.501C29.0868 58 28.7332 57.8536 28.4403 57.5607C28.1474 57.2678 28.001 56.9142 28.001 56.5Z" fill="#FFBE3D"/>
<path opacity="0.3" fill-rule="evenodd" clip-rule="evenodd" d="M31.424 17.349L33.481 19.397C32.6828 20.1981 32.2717 21.3063 32.3542 22.4342C32.4367 23.562 33.0047 24.5986 33.911 25.275L34.773 25.919L33.035 28.249L32.173 27.605C30.5905 26.4255 29.5986 24.6166 29.4549 22.6482C29.3111 20.6797 30.0297 18.7459 31.424 17.349L31.424 17.349Z" fill="#FFBE3D"/>
<path opacity="0.3" fill-rule="evenodd" clip-rule="evenodd" d="M40.309 19.126L42.366 21.174C41.5678 21.9751 41.1567 23.0833 41.2392 24.2111C41.3217 25.339 41.8897 26.3755 42.796 27.052L43.658 27.696L41.92 30.026L41.058 29.382C39.4755 28.2025 38.4836 26.3936 38.3398 24.4251C38.196 22.4567 38.9146 20.5229 40.309 19.126L40.309 19.126Z" fill="#FFBE3D"/>
<path opacity="0.3" fill-rule="evenodd" clip-rule="evenodd" d="M49.195 17.349L51.252 19.397C50.4538 20.1981 50.0427 21.3063 50.1252 22.4342C50.2077 23.562 50.7757 24.5986 51.682 25.275L52.544 25.919L50.806 28.249L49.944 27.605C48.3615 26.4255 47.3696 24.6166 47.2258 22.6482C47.0821 20.6797 47.8007 18.7459 49.195 17.349L49.195 17.349Z" fill="#FFBE3D"/>
</svg>
