<svg width="80" height="80" viewBox="0 0 80 80" fill="none" xmlns="http://www.w3.org/2000/svg">
<circle cx="40.001" cy="40" r="40" fill="#EAFAF3"/>
<path opacity="0.3" fill-rule="evenodd" clip-rule="evenodd" d="M32.989 23.283V24.157C32.9882 24.853 33.2641 25.5208 33.7558 26.0133C34.2476 26.5058 34.915 26.7827 35.611 26.783H44.353C45.8016 26.783 46.976 25.6086 46.976 24.16L46.976 23.283H50.476C52.409 23.283 53.976 24.85 53.976 26.783V54.754C53.976 56.687 52.409 58.254 50.476 58.254H29.495C27.562 58.254 25.995 56.687 25.995 54.754V26.783C25.995 24.85 27.562 23.283 29.495 23.283H32.989Z" fill="#2DCA8C"/>
<path fill-rule="evenodd" clip-rule="evenodd" d="M38.237 21.535C38.237 20.5685 39.0205 19.785 39.987 19.785C40.9535 19.785 41.737 20.5685 41.737 21.535L44.36 21.535C44.8427 21.535 45.234 21.9263 45.234 22.409V24.158C45.234 24.6407 44.8427 25.032 44.36 25.032H35.611C35.1283 25.032 34.737 24.6407 34.737 24.158L34.737 22.41C34.7368 21.9276 35.128 21.5362 35.6107 21.536L38.237 21.535Z" fill="#2DCA8C"/>
<path opacity="0.3" fill-rule="evenodd" clip-rule="evenodd" d="M37.001 35.5C37.001 35.0858 37.1474 34.7322 37.4403 34.4393C37.7332 34.1464 38.0868 34 38.501 34H46.501C46.9152 34 47.2687 34.1464 47.5616 34.4393C47.8545 34.7322 48.001 35.0858 48.001 35.5C48.001 35.9142 47.8545 36.2678 47.5616 36.5607C47.2687 36.8536 46.9152 37 46.501 37H38.501C38.0868 37 37.7332 36.8536 37.4403 36.5607C37.1474 36.2678 37.001 35.9142 37.001 35.5Z" fill="#2DCA8C"/>
<path opacity="0.3" fill-rule="evenodd" clip-rule="evenodd" d="M32.001 35.5C32.001 35.0858 32.1474 34.7322 32.4403 34.4393C32.7332 34.1464 33.0868 34 33.501 34C33.9152 34 34.2687 34.1464 34.5616 34.4393C34.8545 34.7322 35.001 35.0858 35.001 35.5C35.001 35.9142 34.8545 36.2678 34.5616 36.5607C34.2687 36.8536 33.9152 37 33.501 37C33.0868 37 32.7332 36.8536 32.4403 36.5607C32.1474 36.2678 32.001 35.9142 32.001 35.5Z" fill="#2DCA8C"/>
<path opacity="0.3" fill-rule="evenodd" clip-rule="evenodd" d="M32.001 42.5C32.001 42.0858 32.1474 41.7322 32.4403 41.4393C32.7332 41.1464 33.0868 41 33.501 41C33.9152 41 34.2687 41.1464 34.5616 41.4393C34.8545 41.7322 35.001 42.0858 35.001 42.5C35.001 42.9142 34.8545 43.2678 34.5616 43.5607C34.2687 43.8536 33.9152 44 33.501 44C33.0868 44 32.7332 43.8536 32.4403 43.5607C32.1474 43.2678 32.001 42.9142 32.001 42.5Z" fill="#2DCA8C"/>
<path opacity="0.3" fill-rule="evenodd" clip-rule="evenodd" d="M37.001 42.5C37.001 42.0858 37.1474 41.7322 37.4403 41.4393C37.7332 41.1464 38.0868 41 38.501 41H46.501C46.9152 41 47.2687 41.1464 47.5616 41.4393C47.8545 41.7322 48.001 42.0858 48.001 42.5C48.001 42.9142 47.8545 43.2678 47.5616 43.5607C47.2687 43.8536 46.9152 44 46.501 44H38.501C38.0868 44 37.7332 43.8536 37.4403 43.5607C37.1474 43.2678 37.001 42.9142 37.001 42.5Z" fill="#2DCA8C"/>
<path opacity="0.3" fill-rule="evenodd" clip-rule="evenodd" d="M32.001 49.5V48.5C32.001 48.0858 32.1474 47.7322 32.4403 47.4393C32.7332 47.1464 33.0868 47 33.501 47C33.9152 47 34.2687 47.1464 34.5616 47.4393C34.8545 47.7322 35.001 48.0858 35.001 48.5V50.5C35.001 50.9142 34.8545 51.2678 34.5616 51.5607C34.2687 51.8536 33.9152 52 33.501 52C33.0868 52 32.7332 51.8536 32.4403 51.5607C32.1474 51.2678 32.001 50.9142 32.001 50.5V49.5Z" fill="#2DCA8C"/>
<path opacity="0.3" fill-rule="evenodd" clip-rule="evenodd" d="M37.001 49.5C37.001 48.8096 37.2451 48.2204 37.7332 47.7322C38.2214 47.2441 38.8106 47 39.501 47H45.501C46.1913 47 46.7806 47.2441 47.2687 47.7322C47.7569 48.2204 48.001 48.8096 48.001 49.5C48.001 50.1904 47.7569 50.7796 47.2687 51.2678C46.7806 51.7559 46.1913 52 45.501 52H39.501C38.8106 52 38.2214 51.7559 37.7332 51.2678C37.2451 50.7796 37.001 50.1904 37.001 49.5Z" fill="#2DCA8C"/>
</svg>
