<svg width="80" height="80" viewBox="0 0 80 80" fill="none" xmlns="http://www.w3.org/2000/svg">
<circle cx="40.001" cy="40" r="40" fill="#FFE3DE"/>
<path opacity="0.3" fill-rule="evenodd" clip-rule="evenodd" d="M41.027 34.109L37.653 32.984C39.013 28.904 41.194 26.36 44.244 25.597C45.832 25.199 48.232 22.645 48.232 21.099H51.789C51.789 24.299 48.262 28.26 45.107 29.048C43.414 29.471 42.039 31.076 41.027 34.109Z" fill="#FF715B"/>
<path fill-rule="evenodd" clip-rule="evenodd" d="M31.903 31.768H46.813C49.2563 31.283 51.7102 32.5531 52.725 34.828L58.813 48.474C59.7316 50.5325 59.2572 52.9462 57.628 54.504L56.838 55.26C56.802 55.2947 56.765 55.328 56.727 55.36C54.7946 57.0915 51.8246 56.9294 50.092 54.998L45.207 49.551H33.764L28.88 54.999C27.1474 56.9304 24.1774 57.0925 22.245 55.361C22.2077 55.3277 22.1707 55.2943 22.134 55.261L21.303 54.467C19.6938 52.9282 19.2094 50.5518 20.088 48.506L25.934 34.891C26.932 32.5669 29.4246 31.2627 31.903 31.768V31.768ZM32.225 44.221C34.1895 44.221 35.782 42.6285 35.782 40.664C35.782 38.6995 34.1895 37.107 32.225 37.107C30.2605 37.107 28.668 38.6995 28.668 40.664C28.668 42.6285 30.2605 44.221 32.225 44.221H32.225ZM48.225 40.664C49.207 40.664 50.003 39.868 50.003 38.886C50.003 37.904 49.207 37.108 48.225 37.108C47.243 37.108 46.447 37.904 46.447 38.886C46.4481 39.3579 46.6367 39.81 46.9713 40.1428C47.3059 40.4755 47.7591 40.6616 48.231 40.66L48.225 40.664ZM44.675 44.221C45.657 44.221 46.453 43.425 46.453 42.443C46.453 41.461 45.657 40.665 44.675 40.665C43.693 40.665 42.897 41.461 42.897 42.443C42.897 43.425 43.693 44.221 44.675 44.221Z" fill="#FF715B"/>
</svg>
